<?xml version="1.0" encoding="UTF-8" standalone="no"?>
<!DOCTYPE svg PUBLIC "-//W3C//DTD SVG 1.1//EN"
 "http://www.w3.org/Graphics/SVG/1.1/DTD/svg11.dtd">
<!-- Generated by graphviz version 2.38.0 (20140413.2041)
 -->
<!-- Title: models_diagram Pages: 1 -->
<svg width="330pt" height="302pt"
 viewBox="0.00 0.00 330.50 302.00" xmlns="http://www.w3.org/2000/svg" xmlns:xlink="http://www.w3.org/1999/xlink">
<g id="graph0" class="graph" transform="scale(1 1) rotate(0) translate(4 298)">
<title>models_diagram</title>
<polygon fill="none" stroke="none" points="-4,4 -4,-298 326.496,-298 326.496,4 -4,4"/>
<!-- _diagram_info -->
<g id="node1" class="node"><title>_diagram_info</title>
<text text-anchor="start" x="8" y="-279.6" font-family="Times,serif" font-size="13.00">Models diagram</text>
<text text-anchor="start" x="8" y="-265.6" font-family="Times,serif" font-size="13.00">Date: Aug 01 2016 &#45; 21:58</text>
<text text-anchor="start" x="8" y="-251.6" font-family="Times,serif" font-size="13.00">Migration version: 20160802014323</text>
<text text-anchor="start" x="8" y="-237.6" font-family="Times,serif" font-size="13.00">Generated by RailRoady 1.5.1</text>
<text text-anchor="start" x="8" y="-223.6" font-family="Times,serif" font-size="13.00">http://railroady.prestonlee.com</text>
</g>
<!-- Genre -->
<g id="node2" class="node"><title>Genre</title>
<ellipse fill="none" stroke="black" cx="276" cy="-18" rx="32.4942" ry="18"/>
<text text-anchor="middle" x="276" y="-14.3" font-family="Times,serif" font-size="14.00">Genre</text>
</g>
<!-- UserSong -->
<g id="node3" class="node"><title>UserSong</title>
<ellipse fill="none" stroke="black" cx="277" cy="-255" rx="45.4919" ry="18"/>
<text text-anchor="middle" x="277" y="-251.3" font-family="Times,serif" font-size="14.00">UserSong</text>
</g>
<!-- User -->
<g id="node4" class="node"><title>User</title>
<ellipse fill="none" stroke="black" cx="249" cy="-162" rx="27.0966" ry="18"/>
<text text-anchor="middle" x="249" y="-158.3" font-family="Times,serif" font-size="14.00">User</text>
</g>
<!-- UserSong&#45;&gt;User -->
<g id="edge1" class="edge"><title>UserSong&#45;&gt;User</title>
<path fill="none" stroke="#c8d194" d="M269.341,-229.107C265.567,-216.844 261.015,-202.048 257.174,-189.566"/>
<ellipse fill="none" stroke="#c8d194" cx="270.557" cy="-233.06" rx="4.00001" ry="4.00001"/>
<polygon fill="#c8d194" stroke="#c8d194" points="257.089,-189.29 258.449,-178.409 255.619,-184.511 254.148,-179.732 254.148,-179.732 254.148,-179.732 255.619,-184.511 249.847,-181.056 257.089,-189.29 257.089,-189.29"/>
</g>
<!-- Song -->
<g id="node5" class="node"><title>Song</title>
<ellipse fill="none" stroke="black" cx="276" cy="-90" rx="28.6953" ry="18"/>
<text text-anchor="middle" x="276" y="-86.3" font-family="Times,serif" font-size="14.00">Song</text>
</g>
<!-- UserSong&#45;&gt;Song -->
<g id="edge2" class="edge"><title>UserSong&#45;&gt;Song</title>
<path fill="none" stroke="#ba8a75" d="M281.067,-228.873C284.144,-206.569 287.453,-173.1 285,-144 284.283,-135.499 282.931,-126.312 281.488,-118.012"/>
<ellipse fill="none" stroke="#ba8a75" cx="280.486" cy="-232.884" rx="4.00001" ry="4.00001"/>
<polygon fill="#ba8a75" stroke="#ba8a75" points="281.473,-117.926 284.079,-107.274 280.563,-113.009 279.654,-108.092 279.654,-108.092 279.654,-108.092 280.563,-113.009 275.229,-108.911 281.473,-117.926 281.473,-117.926"/>
</g>
<!-- User&#45;&gt;Song -->
<g id="edge3" class="edge"><title>User&#45;&gt;Song</title>
<path fill="none" stroke="#7b200a" d="M258.343,-136.778C260.747,-130.544 263.347,-123.805 265.793,-117.463"/>
<ellipse fill="none" stroke="#7b200a" cx="256.838" cy="-140.679" rx="4.00001" ry="4.00001"/>
<polygon fill="#7b200a" stroke="#7b200a" points="265.861,-117.286 273.658,-109.576 267.66,-112.621 269.46,-107.956 269.46,-107.956 269.46,-107.956 267.66,-112.621 265.261,-106.337 265.861,-117.286 265.861,-117.286"/>
</g>
<!-- Song&#45;&gt;Genre -->
<g id="edge4" class="edge"><title>Song&#45;&gt;Genre</title>
<path fill="none" stroke="#cee87c" d="M276,-63.6398C276,-58.0629 276,-52.1319 276,-46.4761"/>
<ellipse fill="none" stroke="#cee87c" cx="276" cy="-67.6966" rx="4" ry="4"/>
<polygon fill="#cee87c" stroke="#cee87c" points="276,-46.1043 280.5,-36.1043 276,-41.1043 276,-36.1043 276,-36.1043 276,-36.1043 276,-41.1043 271.5,-36.1044 276,-46.1043 276,-46.1043"/>
</g>
</g>
</svg>
