<?xml version="1.0" encoding="UTF-8" standalone="no"?>
<!DOCTYPE svg PUBLIC "-//W3C//DTD SVG 1.1//EN"
 "http://www.w3.org/Graphics/SVG/1.1/DTD/svg11.dtd">
<!-- Generated by graphviz version 2.38.0 (20140413.2041)
 -->
<!-- Title: models_diagram Pages: 1 -->
<svg width="376pt" height="694pt"
 viewBox="0.00 0.00 375.50 694.00" xmlns="http://www.w3.org/2000/svg" xmlns:xlink="http://www.w3.org/1999/xlink">
<g id="graph0" class="graph" transform="scale(1 1) rotate(0) translate(4 690)">
<title>models_diagram</title>
<polygon fill="none" stroke="none" points="-4,4 -4,-690 371.5,-690 371.5,4 -4,4"/>
<!-- _diagram_info -->
<g id="node1" class="node"><title>_diagram_info</title>
<text text-anchor="start" x="8" y="-657.1" font-family="Times,serif" font-size="13.00">Models diagram</text>
<text text-anchor="start" x="8" y="-643.1" font-family="Times,serif" font-size="13.00">Date: Aug 01 2016 &#45; 21:58</text>
<text text-anchor="start" x="8" y="-629.1" font-family="Times,serif" font-size="13.00">Migration version: 20160802014323</text>
<text text-anchor="start" x="8" y="-615.1" font-family="Times,serif" font-size="13.00">Generated by RailRoady 1.5.1</text>
<text text-anchor="start" x="8" y="-601.1" font-family="Times,serif" font-size="13.00">http://railroady.prestonlee.com</text>
</g>
<!-- Genre -->
<g id="node2" class="node"><title>Genre</title>
<path fill="none" stroke="black" d="M244.5,-0.5C244.5,-0.5 351.5,-0.5 351.5,-0.5 357.5,-0.5 363.5,-6.5 363.5,-12.5 363.5,-12.5 363.5,-79.5 363.5,-79.5 363.5,-85.5 357.5,-91.5 351.5,-91.5 351.5,-91.5 244.5,-91.5 244.5,-91.5 238.5,-91.5 232.5,-85.5 232.5,-79.5 232.5,-79.5 232.5,-12.5 232.5,-12.5 232.5,-6.5 238.5,-0.5 244.5,-0.5"/>
<text text-anchor="middle" x="298" y="-76.3" font-family="Times,serif" font-size="14.00">Genre</text>
<polyline fill="none" stroke="black" points="232.5,-68.5 363.5,-68.5 "/>
<text text-anchor="start" x="240.5" y="-53.3" font-family="Times,serif" font-size="14.00">id :INTEGER</text>
<text text-anchor="start" x="240.5" y="-38.3" font-family="Times,serif" font-size="14.00">name :varchar</text>
<text text-anchor="start" x="240.5" y="-23.3" font-family="Times,serif" font-size="14.00">created_at :datetime</text>
<text text-anchor="start" x="240.5" y="-8.3" font-family="Times,serif" font-size="14.00">updated_at :datetime</text>
</g>
<!-- UserSong -->
<g id="node3" class="node"><title>UserSong</title>
<path fill="none" stroke="black" d="M244.5,-579.5C244.5,-579.5 351.5,-579.5 351.5,-579.5 357.5,-579.5 363.5,-585.5 363.5,-591.5 363.5,-591.5 363.5,-673.5 363.5,-673.5 363.5,-679.5 357.5,-685.5 351.5,-685.5 351.5,-685.5 244.5,-685.5 244.5,-685.5 238.5,-685.5 232.5,-679.5 232.5,-673.5 232.5,-673.5 232.5,-591.5 232.5,-591.5 232.5,-585.5 238.5,-579.5 244.5,-579.5"/>
<text text-anchor="middle" x="298" y="-670.3" font-family="Times,serif" font-size="14.00">UserSong</text>
<polyline fill="none" stroke="black" points="232.5,-662.5 363.5,-662.5 "/>
<text text-anchor="start" x="240.5" y="-647.3" font-family="Times,serif" font-size="14.00">id :INTEGER</text>
<text text-anchor="start" x="240.5" y="-632.3" font-family="Times,serif" font-size="14.00">user_id_id :integer</text>
<text text-anchor="start" x="240.5" y="-617.3" font-family="Times,serif" font-size="14.00">song_id_id :integer</text>
<text text-anchor="start" x="240.5" y="-602.3" font-family="Times,serif" font-size="14.00">created_at :datetime</text>
<text text-anchor="start" x="240.5" y="-587.3" font-family="Times,serif" font-size="14.00">updated_at :datetime</text>
</g>
<!-- User -->
<g id="node4" class="node"><title>User</title>
<path fill="none" stroke="black" d="M146,-301.5C146,-301.5 322,-301.5 322,-301.5 328,-301.5 334,-307.5 334,-313.5 334,-313.5 334,-530.5 334,-530.5 334,-536.5 328,-542.5 322,-542.5 322,-542.5 146,-542.5 146,-542.5 140,-542.5 134,-536.5 134,-530.5 134,-530.5 134,-313.5 134,-313.5 134,-307.5 140,-301.5 146,-301.5"/>
<text text-anchor="middle" x="234" y="-527.3" font-family="Times,serif" font-size="14.00">User</text>
<polyline fill="none" stroke="black" points="134,-519.5 334,-519.5 "/>
<text text-anchor="start" x="142" y="-504.3" font-family="Times,serif" font-size="14.00">id :INTEGER</text>
<text text-anchor="start" x="142" y="-489.3" font-family="Times,serif" font-size="14.00">email :varchar</text>
<text text-anchor="start" x="142" y="-474.3" font-family="Times,serif" font-size="14.00">encrypted_password :varchar</text>
<text text-anchor="start" x="142" y="-459.3" font-family="Times,serif" font-size="14.00">reset_password_token :varchar</text>
<text text-anchor="start" x="142" y="-444.3" font-family="Times,serif" font-size="14.00">reset_password_sent_at :datetime</text>
<text text-anchor="start" x="142" y="-429.3" font-family="Times,serif" font-size="14.00">remember_created_at :datetime</text>
<text text-anchor="start" x="142" y="-414.3" font-family="Times,serif" font-size="14.00">sign_in_count :integer</text>
<text text-anchor="start" x="142" y="-399.3" font-family="Times,serif" font-size="14.00">current_sign_in_at :datetime</text>
<text text-anchor="start" x="142" y="-384.3" font-family="Times,serif" font-size="14.00">last_sign_in_at :datetime</text>
<text text-anchor="start" x="142" y="-369.3" font-family="Times,serif" font-size="14.00">current_sign_in_ip :varchar</text>
<text text-anchor="start" x="142" y="-354.3" font-family="Times,serif" font-size="14.00">last_sign_in_ip :varchar</text>
<text text-anchor="start" x="142" y="-339.3" font-family="Times,serif" font-size="14.00">created_at :datetime</text>
<text text-anchor="start" x="142" y="-324.3" font-family="Times,serif" font-size="14.00">updated_at :datetime</text>
<text text-anchor="start" x="142" y="-309.3" font-family="Times,serif" font-size="14.00">name :varchar</text>
</g>
<!-- UserSong&#45;&gt;User -->
<g id="edge1" class="edge"><title>UserSong&#45;&gt;User</title>
<path fill="none" stroke="#723c0f" d="M279.6,-571.556C277.718,-565.424 275.758,-559.041 273.756,-552.517"/>
<ellipse fill="none" stroke="#723c0f" cx="280.841" cy="-575.601" rx="4.00001" ry="4.00001"/>
<polygon fill="#723c0f" stroke="#723c0f" points="273.73,-552.432 275.097,-541.551 272.262,-547.652 270.795,-542.872 270.795,-542.872 270.795,-542.872 272.262,-547.652 266.493,-544.192 273.73,-552.432 273.73,-552.432"/>
</g>
<!-- Song -->
<g id="node5" class="node"><title>Song</title>
<path fill="none" stroke="black" d="M240.5,-128.5C240.5,-128.5 355.5,-128.5 355.5,-128.5 361.5,-128.5 367.5,-134.5 367.5,-140.5 367.5,-140.5 367.5,-252.5 367.5,-252.5 367.5,-258.5 361.5,-264.5 355.5,-264.5 355.5,-264.5 240.5,-264.5 240.5,-264.5 234.5,-264.5 228.5,-258.5 228.5,-252.5 228.5,-252.5 228.5,-140.5 228.5,-140.5 228.5,-134.5 234.5,-128.5 240.5,-128.5"/>
<text text-anchor="middle" x="298" y="-249.3" font-family="Times,serif" font-size="14.00">Song</text>
<polyline fill="none" stroke="black" points="228.5,-241.5 367.5,-241.5 "/>
<text text-anchor="start" x="236.5" y="-226.3" font-family="Times,serif" font-size="14.00">id :INTEGER</text>
<text text-anchor="start" x="236.5" y="-211.3" font-family="Times,serif" font-size="14.00">name :varchar</text>
<text text-anchor="start" x="236.5" y="-196.3" font-family="Times,serif" font-size="14.00">duration :integer</text>
<text text-anchor="start" x="236.5" y="-181.3" font-family="Times,serif" font-size="14.00">genres_id_id :integer</text>
<text text-anchor="start" x="236.5" y="-166.3" font-family="Times,serif" font-size="14.00">user_songs_id :integer</text>
<text text-anchor="start" x="236.5" y="-151.3" font-family="Times,serif" font-size="14.00">created_at :datetime</text>
<text text-anchor="start" x="236.5" y="-136.3" font-family="Times,serif" font-size="14.00">updated_at :datetime</text>
</g>
<!-- UserSong&#45;&gt;Song -->
<g id="edge2" class="edge"><title>UserSong&#45;&gt;Song</title>
<path fill="none" stroke="#0d3903" d="M333.021,-571.823C337.135,-562.446 340.686,-552.655 343,-543 368.065,-438.406 364.901,-406.302 343,-301 341.154,-292.125 338.506,-283.077 335.405,-274.209"/>
<ellipse fill="none" stroke="#0d3903" cx="331.283" cy="-575.608" rx="4.00002" ry="4.00002"/>
<polygon fill="#0d3903" stroke="#0d3903" points="335.347,-274.053 336.1,-263.113 333.613,-269.363 331.879,-264.674 331.879,-264.674 331.879,-264.674 333.613,-269.363 327.659,-266.234 335.347,-274.053 335.347,-274.053"/>
</g>
<!-- User&#45;&gt;Song -->
<g id="edge3" class="edge"><title>User&#45;&gt;Song</title>
<path fill="none" stroke="#ef8a3e" d="M270.517,-293.475C272.367,-287.016 274.196,-280.628 275.979,-274.401"/>
<ellipse fill="none" stroke="#ef8a3e" cx="269.35" cy="-297.553" rx="4.00001" ry="4.00001"/>
<polygon fill="#ef8a3e" stroke="#ef8a3e" points="275.987,-274.375 283.066,-266 277.363,-269.568 278.74,-264.761 278.74,-264.761 278.74,-264.761 277.363,-269.568 274.413,-263.522 275.987,-274.375 275.987,-274.375"/>
</g>
<!-- Song&#45;&gt;Genre -->
<g id="edge4" class="edge"><title>Song&#45;&gt;Genre</title>
<path fill="none" stroke="#42305e" d="M298,-120.02C298,-113.927 298,-107.845 298,-101.938"/>
<ellipse fill="none" stroke="#42305e" cx="298" cy="-124.202" rx="4" ry="4"/>
<polygon fill="#42305e" stroke="#42305e" points="298,-101.53 302.5,-91.5297 298,-96.5297 298,-91.5297 298,-91.5297 298,-91.5297 298,-96.5297 293.5,-91.5298 298,-101.53 298,-101.53"/>
</g>
</g>
</svg>
